<svg width="16" height="12" viewBox="0 0 16 12" fill="none" xmlns="http://www.w3.org/2000/svg">
<path d="M10.1818 6.00001C11.7891 6.00001 13.0909 4.69819 13.0909 3.09091C13.0909 1.48364 11.7891 0.181824 10.1818 0.181824C8.57455 0.181824 7.27273 1.48364 7.27273 3.09091C7.27273 4.69819 8.57455 6.00001 10.1818 6.00001ZM3.63636 4.54546V3.09091C3.63636 2.69091 3.30909 2.36364 2.90909 2.36364C2.50909 2.36364 2.18182 2.69091 2.18182 3.09091V4.54546H0.727273C0.327273 4.54546 0 4.87273 0 5.27273C0 5.67273 0.327273 6.00001 0.727273 6.00001H2.18182V7.45455C2.18182 7.85455 2.50909 8.18182 2.90909 8.18182C3.30909 8.18182 3.63636 7.85455 3.63636 7.45455V6.00001H5.09091C5.49091 6.00001 5.81818 5.67273 5.81818 5.27273C5.81818 4.87273 5.49091 4.54546 5.09091 4.54546H3.63636ZM10.1818 7.45455C8.24 7.45455 4.36364 8.4291 4.36364 10.3636V11.0909C4.36364 11.4909 4.69091 11.8182 5.09091 11.8182H15.2727C15.6727 11.8182 16 11.4909 16 11.0909V10.3636C16 8.4291 12.1236 7.45455 10.1818 7.45455Z" fill="white"/>
</svg>
