<svg width="98" height="98" viewBox="0 0 98 98" fill="none" xmlns="http://www.w3.org/2000/svg">
<path d="M49 0.92308C22.4616 0.92308 0.923096 22.4615 0.923096 49C0.923096 75.5385 22.4616 97.0769 49 97.0769C75.5385 97.0769 97.0769 75.5385 97.0769 49C97.0769 22.4615 75.5385 0.92308 49 0.92308ZM49 15.3462C56.9808 15.3462 63.4231 21.7885 63.4231 29.7692C63.4231 37.75 56.9808 44.1923 49 44.1923C41.0192 44.1923 34.5769 37.75 34.5769 29.7692C34.5769 21.7885 41.0192 15.3462 49 15.3462ZM49 83.6154C36.9808 83.6154 26.3558 77.4615 20.1539 68.1346C20.2981 58.5673 39.3846 53.3269 49 53.3269C58.5673 53.3269 77.7019 58.5673 77.8462 68.1346C71.6442 77.4615 61.0192 83.6154 49 83.6154Z" fill="#616161"/>
</svg>
