<svg width="30" height="28" viewBox="0 0 30 28" fill="none" xmlns="http://www.w3.org/2000/svg">
<path d="M16.1864 18.1864L12.7227 14.7636L12.7636 14.7227C15.1364 12.0773 16.8273 9.03638 17.8227 5.81819H21.8182V3.09092H12.2727V0.363647H9.54545V3.09092H0V5.80456H15.2318C14.3182 8.43637 12.8727 10.9318 10.9091 13.1136C9.64091 11.7091 8.59091 10.1682 7.75909 8.54547H5.03182C6.02727 10.7682 7.39091 12.8682 9.09546 14.7636L2.15455 21.6091L4.09091 23.5455L10.9091 16.7273L15.15 20.9682L16.1864 18.1864ZM23.8636 11.2727H21.1364L15 27.6364H17.7273L19.2545 23.5455H25.7318L27.2727 27.6364H30L23.8636 11.2727ZM20.2909 20.8182L22.5 14.9136L24.7091 20.8182H20.2909Z" fill="white"/>
</svg>
