<svg width="20" height="20" viewBox="0 0 20 20" fill="none" xmlns="http://www.w3.org/2000/svg">
<path d="M16.8492 2.88C14.9908 1.02154 12.5292 0 9.89538 0C4.48 0 0.0738461 4.40615 0.0738461 9.82154C0.0738461 11.5569 0.529231 13.2431 1.39077 14.7323L0 19.8277L5.20615 18.4615C6.64615 19.2492 8.25846 19.6554 9.89538 19.6554C15.3108 19.6554 19.7169 15.2492 19.7169 9.83384C19.7292 7.21231 18.7077 4.73846 16.8492 2.88ZM9.90769 17.9938C8.44308 17.9938 7.00308 17.6 5.74769 16.8615L5.45231 16.6892L2.36308 17.4892L3.18769 14.4738L2.99077 14.1661C2.17846 12.8615 1.74769 11.36 1.74769 9.82154C1.74769 5.31692 5.41538 1.66154 9.92 1.66154C12.0985 1.66154 14.1538 2.51077 15.6923 4.06154C17.2308 5.6 18.08 7.65538 18.08 9.83384C18.0677 14.3385 14.4123 17.9938 9.90769 17.9938ZM14.3877 11.8892C14.1415 11.7661 12.9354 11.1754 12.7138 11.0892C12.4923 11.0031 12.32 10.9661 12.16 11.2123C12 11.4585 11.52 12.0123 11.3846 12.1723C11.2369 12.3323 11.1015 12.3569 10.8554 12.2338C10.6092 12.1108 9.82154 11.8523 8.88615 11.0154C8.14769 10.3631 7.65538 9.56307 7.50769 9.31692C7.36 9.07077 7.49538 8.93538 7.61846 8.81231C7.72923 8.70154 7.86461 8.52923 7.98769 8.38154C8.11077 8.23384 8.14769 8.13538 8.23384 7.97538C8.32 7.81538 8.27077 7.66769 8.20923 7.54461C8.14769 7.42154 7.65538 6.21538 7.45846 5.72307C7.24923 5.24308 7.05231 5.30461 6.90461 5.29231C6.75692 5.29231 6.59692 5.29231 6.42461 5.29231C6.26461 5.29231 5.99385 5.35384 5.77231 5.6C5.55077 5.84615 4.91077 6.43692 4.91077 7.64307C4.91077 8.84923 5.78462 10.0185 5.90769 10.1785C6.03077 10.3385 7.64308 12.8246 10.1046 13.8831C10.6954 14.1415 11.1508 14.2892 11.5077 14.4C12.0985 14.5846 12.6277 14.56 13.0585 14.4985C13.5262 14.4246 14.5108 13.9077 14.72 13.3292C14.9292 12.7508 14.9292 12.2585 14.8677 12.16C14.7938 12.0615 14.6338 12 14.3877 11.8892Z" fill="white"/>
</svg>
